<svg width="18" height="19" viewBox="0 0 18 19" fill="none" xmlns="http://www.w3.org/2000/svg">
<path d="M8.99928 6.12645C8.33177 6.12645 7.67925 6.32439 7.12423 6.69524C6.56921 7.06609 6.13663 7.59319 5.88119 8.2099C5.62574 8.8266 5.5589 9.5052 5.68913 10.1599C5.81935 10.8146 6.14079 11.4159 6.61279 11.8879C7.0848 12.3599 7.68616 12.6814 8.34085 12.8116C8.99554 12.9418 9.67414 12.875 10.2908 12.6195C10.9075 12.3641 11.4346 11.9315 11.8055 11.3765C12.1763 10.8215 12.3743 10.169 12.3743 9.50145C12.3733 8.60663 12.0175 7.74873 11.3847 7.11599C10.752 6.48326 9.8941 6.12738 8.99928 6.12645ZM8.99928 11.7515C8.55427 11.7515 8.11926 11.6195 7.74925 11.3723C7.37924 11.125 7.09085 10.7736 6.92055 10.3625C6.75025 9.95136 6.7057 9.49896 6.79251 9.0625C6.87933 8.62604 7.09362 8.22513 7.40829 7.91046C7.72296 7.59579 8.12387 7.3815 8.56033 7.29468C8.99678 7.20787 9.44918 7.25243 9.86032 7.42272C10.2715 7.59302 10.6229 7.88141 10.8701 8.25142C11.1173 8.62143 11.2493 9.05644 11.2493 9.50145C11.2493 10.0982 11.0122 10.6705 10.5903 11.0924C10.1683 11.5144 9.59602 11.7515 8.99928 11.7515ZM16.7294 8.03966C16.7138 7.96044 16.6812 7.88554 16.634 7.82002C16.5868 7.7545 16.5261 7.69992 16.4559 7.65997L14.3585 6.46465L14.3501 4.10075C14.3498 4.01934 14.3319 3.93895 14.2975 3.86514C14.2632 3.79133 14.2132 3.72586 14.1511 3.67325C13.3902 3.02968 12.5141 2.53648 11.5692 2.21989C11.4948 2.1947 11.4159 2.18538 11.3377 2.19253C11.2595 2.19967 11.1836 2.22312 11.115 2.26137L8.99928 3.44403L6.88147 2.25926C6.81281 2.2208 6.73684 2.19717 6.65848 2.1899C6.58012 2.18264 6.50111 2.19189 6.42655 2.21708C5.48235 2.53598 4.6072 3.03106 3.84748 3.67606C3.78544 3.7286 3.73553 3.79395 3.70118 3.86763C3.66683 3.94131 3.64885 4.02156 3.6485 4.10286L3.63795 6.46887L1.54053 7.66419C1.47036 7.70413 1.40961 7.75872 1.36241 7.82424C1.31522 7.88975 1.28268 7.96466 1.26701 8.04387C1.07506 9.00848 1.07506 10.0015 1.26701 10.9661C1.28268 11.0453 1.31522 11.1202 1.36241 11.1857C1.40961 11.2512 1.47036 11.3058 1.54053 11.3457L3.63795 12.5411L3.64639 14.905C3.64664 14.9864 3.66457 15.0668 3.69892 15.1406C3.73328 15.2144 3.78324 15.2799 3.84537 15.3325C4.6062 15.976 5.48236 16.4692 6.42725 16.7858C6.50166 16.811 6.58052 16.8203 6.65875 16.8132C6.73698 16.806 6.81285 16.7826 6.88147 16.7443L8.99928 15.5589L11.1171 16.7436C11.2009 16.7903 11.2954 16.8146 11.3913 16.814C11.4527 16.8139 11.5138 16.804 11.572 16.7844C12.5161 16.4659 13.3912 15.9713 14.1511 15.3268C14.2131 15.2743 14.263 15.209 14.2974 15.1353C14.3317 15.0616 14.3497 14.9813 14.3501 14.9L14.3606 12.534L16.458 11.3387C16.5282 11.2988 16.5889 11.2442 16.6361 11.1787C16.6833 11.1132 16.7159 11.0382 16.7315 10.959C16.9224 9.9952 16.9217 9.00321 16.7294 8.03966ZM15.6747 10.4943L13.6659 11.6368C13.5779 11.6869 13.505 11.7598 13.455 11.8478C13.4142 11.9181 13.3713 11.9926 13.3277 12.0629C13.2719 12.1516 13.2422 12.2542 13.2419 12.359L13.2314 14.6265C12.6914 15.0506 12.0899 15.3896 11.4476 15.632L9.42115 14.5028C9.33703 14.4562 9.24238 14.432 9.14623 14.4325H9.13287C9.04779 14.4325 8.96201 14.4325 8.87694 14.4325C8.77631 14.43 8.67682 14.4542 8.58865 14.5028L6.56084 15.6348C5.91714 15.3943 5.31394 15.0569 4.77209 14.6343L4.76436 12.3702C4.76401 12.2652 4.7343 12.1624 4.67858 12.0735C4.63498 12.0032 4.59209 11.9329 4.55201 11.8583C4.50232 11.769 4.42945 11.6946 4.34108 11.6432L2.33014 10.4978C2.22608 9.83952 2.22608 9.16901 2.33014 8.51075L4.33545 7.36606C4.42347 7.31601 4.49634 7.24314 4.54639 7.15512C4.58717 7.08481 4.63006 7.01028 4.67365 6.93997C4.72946 6.8513 4.75918 6.74872 4.75944 6.64395L4.76998 4.37637C5.30993 3.95235 5.91148 3.61329 6.55381 3.3709L8.5774 4.50012C8.66547 4.54894 8.76503 4.57322 8.86569 4.57044C8.95076 4.57044 9.03655 4.57044 9.12162 4.57044C9.22225 4.57295 9.32174 4.54869 9.4099 4.50012L11.4377 3.36809C12.0814 3.60861 12.6846 3.94602 13.2265 4.36864L13.2342 6.6327C13.2345 6.73767 13.2643 6.84046 13.32 6.92942C13.3636 6.99973 13.4065 7.07005 13.4465 7.14458C13.4962 7.23395 13.5691 7.30828 13.6575 7.35973L15.6684 8.50512C15.7739 9.16389 15.7751 9.83513 15.6719 10.4943H15.6747Z" fill="#101010"/>
</svg>
