<svg width="1246" height="1159" viewBox="0 0 1246 1159" fill="none" xmlns="http://www.w3.org/2000/svg">
<path d="M0 1094.8V124.586C0 90.3247 12.2108 60.9847 36.6324 36.5659C61.0125 12.1886 90.335 0 124.6 0H1121.4C1155.67 0 1185.01 12.1886 1209.43 36.5659C1233.81 60.9847 1246 90.3247 1246 124.586V872.101C1246 906.362 1233.81 935.702 1209.43 960.12C1185.01 984.498 1155.67 996.686 1121.4 996.686H249.2L105.91 1139.96C86.1817 1159.69 63.5875 1164.09 38.1276 1153.17C12.7092 1142.29 0 1122.83 0 1094.8Z" fill="url(#paint0_linear_1193_15174)"/>
<path d="M242 285.423V354.369C242.001 465.268 316.196 491.26 359.921 491.26H437.37C423.005 628.842 313.668 667.354 252.108 670.427C246.537 670.706 242 675.183 242 680.761V798.809C242 804.779 247.322 809.411 253.239 808.616C508.118 774.382 572.779 580.808 572.779 486.764V440.8C572.946 420.317 573.179 366.259 572.779 313.901C572.38 261.542 550.627 223.14 539.801 210.483C519.415 184.503 488.08 179.008 474.345 179.008H357.005C348.967 179.008 341 179.442 333.035 181.248C260.706 197.65 242 255.367 242 285.423Z" fill="white"/>
<path d="M673 285.423V354.369C673.001 465.268 747.196 491.26 790.921 491.26H868.37C854.005 628.842 744.668 667.354 683.108 670.427C677.537 670.706 673 675.183 673 680.761V798.809C673 804.779 678.322 809.411 684.239 808.616C939.118 774.382 1003.78 580.808 1003.78 486.764V440.8C1003.95 420.317 1004.18 366.259 1003.78 313.901C1003.38 261.542 981.627 223.14 970.801 210.483C950.415 184.503 919.08 179.008 905.345 179.008H788.005C779.967 179.008 771.873 179.47 764.035 181.248C691.706 197.65 673 255.367 673 285.423Z" fill="white"/>
<defs>
<linearGradient id="paint0_linear_1193_15174" x1="-824.177" y1="-649.042" x2="1366.09" y2="-666.832" gradientUnits="userSpaceOnUse">
<stop stop-color="#3C32AF"/>
<stop offset="1" stop-color="#5449CC"/>
</linearGradient>
</defs>
</svg>
