<svg width="64" height="64" viewBox="0 0 64 64" fill="none" xmlns="http://www.w3.org/2000/svg">
<path d="M41.7791 57.1307C40.267 57.1251 38.796 56.6382 37.5791 55.7407L33.2591 52.5807C32.723 52.186 32.0748 51.973 31.4091 51.973C30.7434 51.973 30.0951 52.186 29.5591 52.5807L25.2391 55.7407C24.1219 56.5565 22.7919 57.0303 21.4105 57.1044C20.0292 57.1785 18.656 56.8497 17.458 56.158C16.26 55.4664 15.2888 54.4416 14.6623 53.2082C14.0358 51.9749 13.7811 50.5861 13.9291 49.2107L14.5091 43.8907C14.5836 43.2296 14.444 42.562 14.1111 41.986C13.7781 41.4101 13.2692 40.956 12.6591 40.6907L7.76909 38.5307C6.50035 37.9744 5.42113 37.0607 4.66332 35.901C3.90552 34.7413 3.50195 33.386 3.50195 32.0007C3.50195 30.6154 3.90552 29.2601 4.66332 28.1004C5.42113 26.9407 6.50035 26.0269 7.76909 25.4707L12.6591 23.3107C13.2692 23.0453 13.7781 22.5913 14.1111 22.0153C14.444 21.4394 14.5836 20.7718 14.5091 20.1107L13.9291 14.7907C13.7811 13.4153 14.0358 12.0265 14.6623 10.7932C15.2888 9.55982 16.26 8.53502 17.458 7.84334C18.656 7.15166 20.0292 6.82288 21.4105 6.89697C22.7919 6.97106 24.1219 7.44483 25.2391 8.26069L29.5591 11.4207C30.0951 11.8154 30.7434 12.0283 31.4091 12.0283C32.0748 12.0283 32.723 11.8154 33.2591 11.4207L37.5791 8.26069C38.3484 7.69129 39.2263 7.2857 40.1585 7.06898C41.0907 6.85226 42.0575 6.82902 42.9991 7.00069C43.961 7.17521 44.8776 7.54247 45.6939 8.08036C46.5102 8.61825 47.2093 9.31567 47.7491 10.1307C47.8988 10.3499 48.0033 10.5967 48.0566 10.8567C48.1099 11.1168 48.1109 11.3848 48.0596 11.6452C48.0082 11.9057 47.9056 12.1533 47.7575 12.3736C47.6095 12.5939 47.4192 12.7826 47.1975 12.9286C46.9758 13.0746 46.7273 13.175 46.4664 13.224C46.2055 13.273 45.9375 13.2696 45.678 13.2139C45.4185 13.1583 45.1726 13.0515 44.9547 12.8999C44.7369 12.7482 44.5514 12.5547 44.4091 12.3307C44.1677 11.968 43.8555 11.6579 43.4912 11.419C43.1268 11.1801 42.7179 11.0174 42.2891 10.9407C41.8762 10.8645 41.4518 10.8759 41.0436 10.9741C40.6353 11.0723 40.2522 11.2551 39.9191 11.5107L35.5991 14.6707C34.3764 15.5668 32.9 16.05 31.3841 16.05C29.8682 16.05 28.3917 15.5668 27.1691 14.6707L22.8591 11.5107C22.3693 11.1388 21.7807 10.9194 21.167 10.88C20.5533 10.8405 19.9415 10.9828 19.4081 11.2889C18.8747 11.5951 18.4433 12.0516 18.1679 12.6015C17.8924 13.1513 17.785 13.7702 17.8591 14.3807L18.4391 19.6907C18.6134 21.1932 18.304 22.7122 17.5559 24.0268C16.8078 25.3414 15.6599 26.3832 14.2791 27.0007L9.37909 29.1607C8.82369 29.4072 8.35174 29.8096 8.0205 30.319C7.68925 30.8284 7.51294 31.423 7.51294 32.0307C7.51294 32.6383 7.68925 33.2329 8.0205 33.7424C8.35174 34.2518 8.82369 34.6542 9.37909 34.9007L14.2791 37.0007C15.6674 37.6097 16.8247 38.6465 17.5821 39.9598C18.3395 41.273 18.6573 42.794 18.4891 44.3007L17.9091 49.6107C17.835 50.2212 17.9424 50.8401 18.2179 51.3899C18.4933 51.9398 18.9247 52.3963 19.4581 52.7024C19.9915 53.0086 20.6033 53.1509 21.217 53.1114C21.8307 53.072 22.4193 52.8526 22.9091 52.4807L27.2191 49.3207C28.4417 48.4245 29.9182 47.9414 31.4341 47.9414C32.95 47.9414 34.4264 48.4245 35.6491 49.3207L39.9691 52.4807C40.4589 52.8526 41.0474 53.072 41.6612 53.1114C42.2749 53.1509 42.8867 53.0086 43.4201 52.7024C43.9535 52.3963 44.3848 51.9398 44.6603 51.3899C44.9358 50.8401 45.0432 50.2212 44.9691 49.6107L44.3891 44.3007C44.2146 42.8007 44.5229 41.2842 45.2692 39.9714C46.0155 38.6586 47.1609 37.618 48.5391 37.0007L53.4391 34.8407C53.9945 34.5942 54.4664 34.1918 54.7977 33.6824C55.1289 33.1729 55.3052 32.5783 55.3052 31.9707C55.3052 31.363 55.1289 30.7684 54.7977 30.259C54.4664 29.7496 53.9945 29.3472 53.4391 29.1007L50.7791 28.0007C50.5315 27.8999 50.3067 27.7505 50.1178 27.5613C49.929 27.3721 49.78 27.147 49.6796 26.8992C49.5793 26.6514 49.5296 26.3861 49.5335 26.1188C49.5375 25.8515 49.595 25.5877 49.7026 25.343C49.8103 25.0984 49.9659 24.8777 50.1602 24.6942C50.3546 24.5107 50.5837 24.368 50.8342 24.2745C51.0846 24.1811 51.3513 24.1388 51.6183 24.1502C51.8854 24.1615 52.1475 24.2263 52.3891 24.3407L55.0491 25.5107C56.3178 26.0669 57.397 26.9807 58.1549 28.1404C58.9127 29.3001 59.3162 30.6554 59.3162 32.0407C59.3162 33.426 58.9127 34.7813 58.1549 35.941C57.397 37.1007 56.3178 38.0144 55.0491 38.5707L50.1591 40.7307C49.5491 40.997 49.0399 41.4509 48.7054 42.0263C48.3709 42.6017 48.2286 43.2688 48.2991 43.9307L48.8791 49.2507C49.0469 50.6275 48.802 52.0232 48.1753 53.2606C47.5486 54.498 46.5684 55.5213 45.3591 56.2007C44.2676 56.8185 43.0332 57.1391 41.7791 57.1307Z" fill="#101010"/>
<path d="M31.6384 39.0026C31.3745 39.0028 31.1132 38.9508 30.8694 38.8495C30.6257 38.7483 30.4045 38.5998 30.2184 38.4126L21.6084 29.8026C21.3938 29.6243 21.2189 29.403 21.0949 29.153C20.971 28.903 20.9007 28.6299 20.8886 28.3511C20.8765 28.0723 20.9229 27.7941 21.0247 27.5343C21.1266 27.2746 21.2817 27.039 21.4801 26.8427C21.6784 26.6465 21.9156 26.4939 22.1765 26.3948C22.4373 26.2957 22.716 26.2523 22.9947 26.2674C23.2733 26.2824 23.5457 26.3556 23.7943 26.4822C24.043 26.6089 24.2624 26.7861 24.4384 27.0026L31.6384 34.2026L57.0784 8.7226C57.4595 8.37854 57.9583 8.19419 58.4715 8.20773C58.9847 8.22126 59.4731 8.43165 59.8355 8.79532C60.1978 9.159 60.4065 9.64811 60.4182 10.1614C60.4299 10.6746 60.2438 11.1728 59.8984 11.5526L33.0484 38.4026C32.8644 38.5904 32.6451 38.74 32.4032 38.843C32.1612 38.946 31.9013 39.0002 31.6384 39.0026Z" fill="url(#paint0_linear_1733_13017)"/>
<defs>
<linearGradient id="paint0_linear_1733_13017" x1="-5.26207" y1="-9.03849" x2="64.2269" y2="-9.71241" gradientUnits="userSpaceOnUse">
<stop stop-color="#3C32AF"/>
<stop offset="1" stop-color="#5449CC"/>
</linearGradient>
</defs>
</svg>
