<svg width="4094" height="765" viewBox="0 0 4094 765" fill="none" xmlns="http://www.w3.org/2000/svg">
<path d="M0 725.885V134.883C0 114.013 7.43818 96.1409 22.3145 81.2662C37.1656 66.4169 55.0273 58.9922 75.8998 58.9922H683.098C703.97 58.9922 721.845 66.4169 736.721 81.2662C751.572 96.1409 758.998 114.013 758.998 134.883V590.23C758.998 611.1 751.572 628.972 736.721 643.847C721.845 658.696 703.97 666.121 683.098 666.121H151.8L64.5148 753.396C52.4973 765.412 38.7342 768.093 23.2253 761.44C7.74178 754.812 0 742.961 0 725.885Z" fill="white"/>
<path d="M147.414 232.854V274.852C147.415 342.406 192.61 358.239 219.246 358.239H266.423C257.673 442.047 191.07 465.506 153.571 467.378C150.178 467.548 147.414 470.275 147.414 473.673V545.582C147.414 549.218 150.656 552.04 154.26 551.556C309.519 530.702 348.907 412.787 348.907 355.5V327.502C349.009 315.024 349.151 282.095 348.907 250.201C348.664 218.307 335.414 194.914 328.819 187.204C316.401 171.379 297.313 168.031 288.946 168.031H217.469C212.573 168.031 207.72 168.296 202.868 169.396C158.809 179.387 147.414 214.545 147.414 232.854Z" fill="url(#paint0_linear_1193_15184)"/>
<path d="M409.953 232.854V274.852C409.954 342.406 455.149 358.239 481.785 358.239H528.962C520.212 442.047 453.609 465.506 416.11 467.378C412.717 467.548 409.953 470.275 409.953 473.673V545.582C409.953 549.218 413.195 552.04 416.799 551.556C572.058 530.702 611.446 412.787 611.446 355.5V327.502C611.548 315.024 611.69 282.095 611.446 250.201C611.203 218.307 597.953 194.914 591.358 187.204C578.94 171.379 559.852 168.031 551.485 168.031H480.008C475.112 168.031 470.182 168.313 465.407 169.396C421.348 179.387 409.953 214.545 409.953 232.854Z" fill="url(#paint1_linear_1193_15184)"/>
<path d="M977.32 337.11V473.79C977.32 483.31 979.53 490.28 983.95 494.7C988.71 498.78 996.53 500.82 1007.41 500.82H1040.56V561H995.68C935.5 561 905.41 531.76 905.41 473.28V337.11H871.75V278.46H905.41V208.59H977.32V278.46H1040.56V337.11H977.32ZM1354.56 413.61C1354.56 423.81 1353.88 432.99 1352.52 441.15H1145.97C1147.67 461.55 1154.81 477.53 1167.39 489.09C1179.97 500.65 1195.44 506.43 1213.8 506.43C1240.32 506.43 1259.19 495.04 1270.41 472.26H1347.42C1339.26 499.46 1323.62 521.9 1300.5 539.58C1277.38 556.92 1248.99 565.59 1215.33 565.59C1188.13 565.59 1163.65 559.64 1141.89 547.74C1120.47 535.5 1103.64 518.33 1091.4 496.23C1079.5 474.13 1073.55 448.63 1073.55 419.73C1073.55 390.49 1079.5 364.82 1091.4 342.72C1103.3 320.62 1119.96 303.62 1141.38 291.72C1162.8 279.82 1187.45 273.87 1215.33 273.87C1242.19 273.87 1266.16 279.65 1287.24 291.21C1308.66 302.77 1325.15 319.26 1336.71 340.68C1348.61 361.76 1354.56 386.07 1354.56 413.61ZM1280.61 393.21C1280.27 374.85 1273.64 360.23 1260.72 349.35C1247.8 338.13 1231.99 332.52 1213.29 332.52C1195.61 332.52 1180.65 337.96 1168.41 348.84C1156.51 359.38 1149.2 374.17 1146.48 393.21H1280.61ZM1514.8 565.59C1491.68 565.59 1470.94 561.51 1452.58 553.35C1434.22 544.85 1419.6 533.46 1408.72 519.18C1398.18 504.9 1392.4 489.09 1391.38 471.75H1463.29C1464.65 482.63 1469.92 491.64 1479.1 498.78C1488.62 505.92 1500.35 509.49 1514.29 509.49C1527.89 509.49 1538.43 506.77 1545.91 501.33C1553.73 495.89 1557.64 488.92 1557.64 480.42C1557.64 471.24 1552.88 464.44 1543.36 460.02C1534.18 455.26 1519.39 450.16 1498.99 444.72C1477.91 439.62 1460.57 434.35 1446.97 428.91C1433.71 423.47 1422.15 415.14 1412.29 403.92C1402.77 392.7 1398.01 377.57 1398.01 358.53C1398.01 342.89 1402.43 328.61 1411.27 315.69C1420.45 302.77 1433.37 292.57 1450.03 285.09C1467.03 277.61 1486.92 273.87 1509.7 273.87C1543.36 273.87 1570.22 282.37 1590.28 299.37C1610.34 316.03 1621.39 338.64 1623.43 367.2H1555.09C1554.07 355.98 1549.31 347.14 1540.81 340.68C1532.65 333.88 1521.6 330.48 1507.66 330.48C1494.74 330.48 1484.71 332.86 1477.57 337.62C1470.77 342.38 1467.37 349.01 1467.37 357.51C1467.37 367.03 1472.13 374.34 1481.65 379.44C1491.17 384.2 1505.96 389.13 1526.02 394.23C1546.42 399.33 1563.25 404.6 1576.51 410.04C1589.77 415.48 1601.16 423.98 1610.68 435.54C1620.54 446.76 1625.64 461.72 1625.98 480.42C1625.98 496.74 1621.39 511.36 1612.21 524.28C1603.37 537.2 1590.45 547.4 1573.45 554.88C1556.79 562.02 1537.24 565.59 1514.8 565.59ZM1767.72 337.11V473.79C1767.72 483.31 1769.93 490.28 1774.35 494.7C1779.11 498.78 1786.93 500.82 1797.81 500.82H1830.96V561H1786.08C1725.9 561 1695.81 531.76 1695.81 473.28V337.11H1662.15V278.46H1695.81V208.59H1767.72V278.46H1830.96V337.11H1767.72ZM1918.53 244.8C1905.95 244.8 1895.41 240.89 1886.91 233.07C1878.75 224.91 1874.67 214.88 1874.67 202.98C1874.67 191.08 1878.75 181.22 1886.91 173.4C1895.41 165.24 1905.95 161.16 1918.53 161.16C1931.11 161.16 1941.48 165.24 1949.64 173.4C1958.14 181.22 1962.39 191.08 1962.39 202.98C1962.39 214.88 1958.14 224.91 1949.64 233.07C1941.48 240.89 1931.11 244.8 1918.53 244.8ZM1953.72 278.46V561H1882.32V278.46H1953.72ZM2375.14 274.38C2409.82 274.38 2437.7 285.09 2458.78 306.51C2480.2 327.59 2490.91 357.17 2490.91 395.25V561H2419.51V404.94C2419.51 382.84 2413.9 366.01 2402.68 354.45C2391.46 342.55 2376.16 336.6 2356.78 336.6C2337.4 336.6 2321.93 342.55 2310.37 354.45C2299.15 366.01 2293.54 382.84 2293.54 404.94V561H2222.14V404.94C2222.14 382.84 2216.53 366.01 2205.31 354.45C2194.09 342.55 2178.79 336.6 2159.41 336.6C2139.69 336.6 2124.05 342.55 2112.49 354.45C2101.27 366.01 2095.66 382.84 2095.66 404.94V561H2024.26V278.46H2095.66V312.63C2104.84 300.73 2116.57 291.38 2130.85 284.58C2145.47 277.78 2161.45 274.38 2178.79 274.38C2200.89 274.38 2220.61 279.14 2237.95 288.66C2255.29 297.84 2268.72 311.1 2278.24 328.44C2287.42 312.12 2300.68 299.03 2318.02 289.17C2335.7 279.31 2354.74 274.38 2375.14 274.38ZM2684.12 565.59C2656.92 565.59 2632.44 559.64 2610.68 547.74C2588.92 535.5 2571.75 518.33 2559.17 496.23C2546.93 474.13 2540.81 448.63 2540.81 419.73C2540.81 390.83 2547.1 365.33 2559.68 343.23C2572.6 321.13 2590.11 304.13 2612.21 292.23C2634.31 279.99 2658.96 273.87 2686.16 273.87C2713.36 273.87 2738.01 279.99 2760.11 292.23C2782.21 304.13 2799.55 321.13 2812.13 343.23C2825.05 365.33 2831.51 390.83 2831.51 419.73C2831.51 448.63 2824.88 474.13 2811.62 496.23C2798.7 518.33 2781.02 535.5 2758.58 547.74C2736.48 559.64 2711.66 565.59 2684.12 565.59ZM2684.12 503.37C2697.04 503.37 2709.11 500.31 2720.33 494.19C2731.89 487.73 2741.07 478.21 2747.87 465.63C2754.67 453.05 2758.07 437.75 2758.07 419.73C2758.07 392.87 2750.93 372.3 2736.65 358.02C2722.71 343.4 2705.54 336.09 2685.14 336.09C2664.74 336.09 2647.57 343.4 2633.63 358.02C2620.03 372.3 2613.23 392.87 2613.23 419.73C2613.23 446.59 2619.86 467.33 2633.12 481.95C2646.72 496.23 2663.72 503.37 2684.12 503.37ZM3040.46 274.38C3074.12 274.38 3101.32 285.09 3122.06 306.51C3142.8 327.59 3153.17 357.17 3153.17 395.25V561H3081.77V404.94C3081.77 382.5 3076.16 365.33 3064.94 353.43C3053.72 341.19 3038.42 335.07 3019.04 335.07C2999.32 335.07 2983.68 341.19 2972.12 353.43C2960.9 365.33 2955.29 382.5 2955.29 404.94V561H2883.89V278.46H2955.29V313.65C2964.81 301.41 2976.88 291.89 2991.5 285.09C3006.46 277.95 3022.78 274.38 3040.46 274.38ZM3257.28 244.8C3244.7 244.8 3234.16 240.89 3225.66 233.07C3217.5 224.91 3213.42 214.88 3213.42 202.98C3213.42 191.08 3217.5 181.22 3225.66 173.4C3234.16 165.24 3244.7 161.16 3257.28 161.16C3269.86 161.16 3280.23 165.24 3288.39 173.4C3296.89 181.22 3301.14 191.08 3301.14 202.98C3301.14 214.88 3296.89 224.91 3288.39 233.07C3280.23 240.89 3269.86 244.8 3257.28 244.8ZM3292.47 278.46V561H3221.07V278.46H3292.47ZM3344.65 418.71C3344.65 390.15 3350.26 364.82 3361.48 342.72C3373.04 320.62 3388.51 303.62 3407.89 291.72C3427.61 279.82 3449.54 273.87 3473.68 273.87C3494.76 273.87 3513.12 278.12 3528.76 286.62C3544.74 295.12 3557.49 305.83 3567.01 318.75V278.46H3638.92V561H3567.01V519.69C3557.83 532.95 3545.08 544 3528.76 552.84C3512.78 561.34 3494.25 565.59 3473.17 565.59C3449.37 565.59 3427.61 559.47 3407.89 547.23C3388.51 534.99 3373.04 517.82 3361.48 495.72C3350.26 473.28 3344.65 447.61 3344.65 418.71ZM3567.01 419.73C3567.01 402.39 3563.61 387.6 3556.81 375.36C3550.01 362.78 3540.83 353.26 3529.27 346.8C3517.71 340 3505.3 336.6 3492.04 336.6C3478.78 336.6 3466.54 339.83 3455.32 346.29C3444.1 352.75 3434.92 362.27 3427.78 374.85C3420.98 387.09 3417.58 401.71 3417.58 418.71C3417.58 435.71 3420.98 450.67 3427.78 463.59C3434.92 476.17 3444.1 485.86 3455.32 492.66C3466.88 499.46 3479.12 502.86 3492.04 502.86C3505.3 502.86 3517.71 499.63 3529.27 493.17C3540.83 486.37 3550.01 476.85 3556.81 464.61C3563.61 452.03 3567.01 437.07 3567.01 419.73ZM3780.05 183.6V561H3708.65V183.6H3780.05ZM3958.72 565.59C3935.6 565.59 3914.86 561.51 3896.5 553.35C3878.14 544.85 3863.52 533.46 3852.64 519.18C3842.1 504.9 3836.32 489.09 3835.3 471.75H3907.21C3908.57 482.63 3913.84 491.64 3923.02 498.78C3932.54 505.92 3944.27 509.49 3958.21 509.49C3971.81 509.49 3982.35 506.77 3989.83 501.33C3997.65 495.89 4001.56 488.92 4001.56 480.42C4001.56 471.24 3996.8 464.44 3987.28 460.02C3978.1 455.26 3963.31 450.16 3942.91 444.72C3921.83 439.62 3904.49 434.35 3890.89 428.91C3877.63 423.47 3866.07 415.14 3856.21 403.92C3846.69 392.7 3841.93 377.57 3841.93 358.53C3841.93 342.89 3846.35 328.61 3855.19 315.69C3864.37 302.77 3877.29 292.57 3893.95 285.09C3910.95 277.61 3930.84 273.87 3953.62 273.87C3987.28 273.87 4014.14 282.37 4034.2 299.37C4054.26 316.03 4065.31 338.64 4067.35 367.2H3999.01C3997.99 355.98 3993.23 347.14 3984.73 340.68C3976.57 333.88 3965.52 330.48 3951.58 330.48C3938.66 330.48 3928.63 332.86 3921.49 337.62C3914.69 342.38 3911.29 349.01 3911.29 357.51C3911.29 367.03 3916.05 374.34 3925.57 379.44C3935.09 384.2 3949.88 389.13 3969.94 394.23C3990.34 399.33 4007.17 404.6 4020.43 410.04C4033.69 415.48 4045.08 423.98 4054.6 435.54C4064.46 446.76 4069.56 461.72 4069.9 480.42C4069.9 496.74 4065.31 511.36 4056.13 524.28C4047.29 537.2 4034.37 547.4 4017.37 554.88C4000.71 562.02 3981.16 565.59 3958.72 565.59Z" fill="white"/>
<defs>
<linearGradient id="paint0_linear_1193_15184" x1="14.0457" y1="-46.7727" x2="368.493" y2="-48.1803" gradientUnits="userSpaceOnUse">
<stop stop-color="#3C32AF"/>
<stop offset="1" stop-color="#5449CC"/>
</linearGradient>
<linearGradient id="paint1_linear_1193_15184" x1="276.585" y1="-47.217" x2="631.032" y2="-48.6217" gradientUnits="userSpaceOnUse">
<stop stop-color="#3C32AF"/>
<stop offset="1" stop-color="#5449CC"/>
</linearGradient>
</defs>
</svg>
